<svg width="52" height="52" viewBox="0 0 52 52" fill="none" xmlns="http://www.w3.org/2000/svg">
<path fill-rule="evenodd" clip-rule="evenodd" d="M49 26C49 38.7025 38.7025 49 26 49C13.2975 49 3 38.7025 3 26C3 13.2975 13.2975 3 26 3C38.7025 3 49 13.2975 49 26ZM50 26C50 39.2548 39.2548 50 26 50C12.7452 50 2 39.2548 2 26C2 12.7452 12.7452 2 26 2C39.2548 2 50 12.7452 50 26ZM44 26C44 35.9411 35.9411 44 26 44C16.0589 44 8 35.9411 8 26C8 16.0589 16.0589 8 26 8C35.9411 8 44 16.0589 44 26ZM15.7754 20.2012L15.9121 19.1367H22.084L21.9961 20.2109L20.6582 20.4941L21.5762 29.0195L21.8008 31.0508L22.5723 29.0195L25.5508 21.8809L25.4238 20.4746L23.8613 20.2012L23.959 19.1367H30.3652L30.2773 20.2109L28.8125 20.4746L29.6328 29.0195L29.7012 31.0508L30.541 29.0195L34.2031 20.4746L31.9863 20.2109L32.084 19.1367H37.8848L37.7871 20.2012L36.2246 20.4648L29.8477 34.0976H26.8203L25.9414 24.9766L22.1426 34.0976H19.1445L17.123 20.4746L15.7754 20.2012Z" fill="white"/>
</svg>
