<svg width="52" height="52" viewBox="0 0 52 52" fill="none" xmlns="http://www.w3.org/2000/svg">
<style>
    path {
        fill: #730641;
    }
    @media (prefers-color-scheme: dark) {
        path {
            fill: #fff;
        }
    }
</style>
<path fill-rule="evenodd" clip-rule="evenodd" d="M26 49C38.7025 49 49 38.7025 49 26C49 13.2975 38.7025 3 26 3C13.2975 3 3 13.2975 3 26C3 38.7025 13.2975 49 26 49ZM26 50C39.2548 50 50 39.2548 50 26C50 12.7452 39.2548 2 26 2C12.7452 2 2 12.7452 2 26C2 39.2548 12.7452 50 26 50Z" fill="#730641"/>
<path fill-rule="evenodd" clip-rule="evenodd" d="M26 44C35.9411 44 44 35.9411 44 26C44 16.0589 35.9411 8 26 8C16.0589 8 8 16.0589 8 26C8 35.9411 16.0589 44 26 44ZM15.9121 19.1367L15.7754 20.2012L17.123 20.4746L19.1445 34.0977H22.1426L25.9414 24.9766L26.8203 34.0977H29.8477L36.2246 20.4648L37.7871 20.2012L37.8848 19.1367H32.084L31.9863 20.2109L34.2031 20.4746L30.541 29.0195L29.7012 31.0508L29.6328 29.0195L28.8125 20.4746L30.2773 20.2109L30.3652 19.1367H23.959L23.8613 20.2012L25.4238 20.4746L25.5508 21.8809L22.5723 29.0195L21.8008 31.0508L21.5762 29.0195L20.6582 20.4941L21.9961 20.2109L22.084 19.1367H15.9121Z" fill="#730641"/>
</svg>
